<svg width="48" height="48" viewBox="0 0 48 48" fill="none" xmlns="http://www.w3.org/2000/svg">
<g id="Frame" clip-path="url(#clip0_1894_21857)">
<g id="Group">
<path id="Vector" d="M34.1249 12.75C34.6426 12.75 35.0624 12.3303 35.0624 11.8125V2.81249C35.0624 1.26169 33.8008 0 32.2499 0H7.8749C6.32418 0 5.0625 1.26169 5.0625 2.81249V45.1876C5.0625 46.7384 6.32418 48.0001 7.8749 48.0001H32.2499C33.8008 48.0001 35.0624 46.7384 35.0624 45.1876V38.0625C35.0624 37.5447 34.6426 37.125 34.1249 37.125C33.6073 37.125 33.1874 37.5447 33.1874 38.0625V42.3751H6.9375V5.62499H13.6607C14.0476 6.71633 15.0902 7.49999 16.3124 7.49999H23.8125C25.0347 7.49999 26.0773 6.71633 26.4642 5.62499H33.1874V11.8125C33.1874 12.3303 33.6073 12.75 34.1249 12.75ZM33.1874 44.2501V45.1876C33.1874 45.7045 32.7669 46.1251 32.2499 46.1251H7.8749C7.35796 46.1251 6.9375 45.7045 6.9375 45.1876V44.2501H33.1874ZM25.6874 3.74999C25.1697 3.74999 24.7499 4.16971 24.7499 4.68749C24.7499 5.20443 24.3294 5.62499 23.8125 5.62499H16.3124C15.7954 5.62499 15.375 5.20443 15.375 4.68749C15.375 4.16971 14.9552 3.74999 14.4375 3.74999H6.9375V2.81249C6.9375 2.29556 7.35796 1.875 7.8749 1.875H32.2499C32.7669 1.875 33.1874 2.29556 33.1874 2.81249V3.74999H25.6874Z" fill="#03200E"/>
<path id="Vector_2" fill-rule="evenodd" clip-rule="evenodd" d="M16.6875 10.875H41.0625C42.0938 10.875 42.9375 11.7188 42.9375 12.75V37.125C42.9375 38.1562 42.0938 39 41.0625 39H16.6875C15.6562 39 14.8125 38.1562 14.8125 37.125V12.75C14.8125 11.7187 15.6562 10.875 16.6875 10.875Z" fill="#53D495"/>
<g id="Group_2">
<path id="Vector_3" d="M19.5 20.2501C20.0177 20.2501 20.4375 19.8304 20.4375 19.3126V16.5001H23.25C24.4909 16.4549 24.4931 14.6712 23.25 14.6251H19.5C18.9823 14.6251 18.5625 15.0448 18.5625 15.5626V19.3126C18.5625 19.8304 18.9823 20.2501 19.5 20.2501ZM23.25 33.375H20.4375V30.5625C20.3924 29.3218 18.6086 29.3193 18.5625 30.5625V34.3124C18.5625 34.8302 18.9823 35.2499 19.5 35.2499H23.25C24.49 35.2073 24.4918 33.4183 23.25 33.375ZM38.25 14.625H34.5C33.258 14.6708 33.2578 16.4542 34.5 16.5H37.3125V19.3125C37.3582 20.554 39.1415 20.555 39.1875 19.3125V15.5625C39.1875 15.0448 38.7678 14.625 38.25 14.625ZM38.25 29.6251C37.7323 29.6251 37.3125 30.0448 37.3125 30.5626V33.3751H34.5C33.2591 33.4203 33.2569 35.204 34.5 35.2501H38.25C38.7677 35.2501 39.1875 34.8304 39.1875 34.3126V30.5626C39.1875 30.0448 38.7678 29.6251 38.25 29.6251ZM28.875 18.3751C26.2903 18.3751 24.1875 20.4779 24.1875 23.0626V24.9376C24.3289 28.6631 29.6713 28.6631 29.8125 24.9376V23.0626C29.8125 22.5448 29.3927 22.1251 28.875 22.1251C28.3573 22.1251 27.9375 22.5448 27.9375 23.0626V24.9376C27.8911 26.1785 26.1097 26.1802 26.0625 24.9376V23.0626C26.0625 21.5118 27.3242 20.2501 28.875 20.2501C30.4258 20.2501 31.6875 21.5118 31.6875 23.0626C31.6875 23.5804 32.1073 24.0001 32.625 24.0001C33.1427 24.0001 33.5625 23.5804 33.5625 23.0626C33.5625 20.4779 31.4597 18.3751 28.875 18.3751Z" fill="#03200E"/>
<path id="Vector_4" d="M32.6249 25.875C32.1072 25.875 31.6874 26.2947 31.6874 26.8125C31.6874 28.3633 30.4257 29.625 28.8749 29.625C28.2304 29.625 27.6227 29.4098 27.1175 29.0029C26.7143 28.6781 26.1241 28.7414 25.7993 29.1448C25.4744 29.548 25.538 30.1382 25.9412 30.463C28.9528 32.9305 33.5916 30.7045 33.5624 26.8125C33.5624 26.2947 33.1426 25.875 32.6249 25.875Z" fill="#03200E"/>
</g>
</g>
</g>
<defs>
<clipPath id="clip0_1894_21857">
<rect width="48" height="48" fill="white"/>
</clipPath>
</defs>
</svg>
