<svg width="48" height="48" viewBox="0 0 48 48" fill="none" xmlns="http://www.w3.org/2000/svg">
<g id="Frame" clip-path="url(#clip0_1894_21870)">
<g id="Group">
<path id="Vector" d="M24.0002 41.6848C33.7673 41.6848 41.6851 33.767 41.6851 24C41.6851 14.2329 33.7673 6.31519 24.0002 6.31519C14.2332 6.31519 6.31543 14.2329 6.31543 24C6.31543 33.767 14.2332 41.6848 24.0002 41.6848Z" stroke="#03200E" stroke-width="1.875" stroke-miterlimit="10" stroke-linecap="round" stroke-linejoin="round"/>
<path id="Vector_2" d="M24.0003 36.4768C30.8911 36.4768 36.4773 30.8907 36.4773 23.9999C36.4773 17.1091 30.8911 11.5229 24.0003 11.5229C17.1095 11.5229 11.5234 17.1091 11.5234 23.9999C11.5234 30.8907 17.1095 36.4768 24.0003 36.4768Z" fill="#86E7B8"/>
<path id="Vector_3" d="M24 0.9375V2.79488M24 45.2051V47.0625M47.0625 24H45.2051M2.79488 24H0.9375M40.3076 7.69238L38.9943 9.00572M9.00572 38.9943L7.69238 40.3076M40.3076 40.3076L38.9943 38.9943M9.00572 9.00572L7.69238 7.69238M24.4287 17.1403V22.029H28.9304L23.3569 30.8597V26.1437H19.0696L24.4287 17.1403Z" stroke="#03200E" stroke-width="1.875" stroke-miterlimit="10" stroke-linecap="round" stroke-linejoin="round"/>
</g>
</g>
<defs>
<clipPath id="clip0_1894_21870">
<rect width="48" height="48" fill="white"/>
</clipPath>
</defs>
</svg>
