<svg width="48" height="48" viewBox="0 0 48 48" fill="none" xmlns="http://www.w3.org/2000/svg">
<g id="Frame" clip-path="url(#clip0_1894_21894)">
<g id="Group">
<path id="Vector" d="M24 38.0625C31.7665 38.0625 38.0625 31.7665 38.0625 24C38.0625 16.2335 31.7665 9.9375 24 9.9375C16.2335 9.9375 9.9375 16.2335 9.9375 24C9.9375 31.7665 16.2335 38.0625 24 38.0625Z" fill="#86E7B8"/>
<g id="Group_2">
<path id="Vector_2" d="M47.0625 20.25H43.8065C43.2938 17.5348 42.2164 14.9345 40.6562 12.6471L42.893 10.4103C43.2591 10.0442 43.2591 9.45056 42.893 9.08447L38.9155 5.10694C38.5496 4.74103 37.9557 4.74084 37.5896 5.10694L35.3528 7.34372C33.0655 5.78363 30.4652 4.70625 27.75 4.19353V0.9375C27.75 0.419719 27.3303 0 26.8125 0H21.1875C20.6697 0 20.25 0.419719 20.25 0.9375V4.19353C17.5348 4.70625 14.9345 5.78363 12.6471 7.34381L10.4103 5.10703C10.0444 4.74112 9.45047 4.74094 9.08438 5.10703L5.10703 9.08447C4.74094 9.45056 4.74094 10.0442 5.10703 10.4103L7.34381 12.6471C5.78363 14.9345 4.70625 17.5348 4.19353 20.25H0.9375C0.419719 20.25 0 20.6697 0 21.1875V26.8125C0 27.3303 0.419719 27.75 0.9375 27.75H4.19353C4.70625 30.4652 5.78363 33.0655 7.34381 35.3529L5.10703 37.5897C4.74094 37.9558 4.74094 38.5494 5.10703 38.9156L9.08447 42.8931C9.45056 43.2591 10.0442 43.2591 10.4104 42.8931L12.6472 40.6563C14.9345 42.2165 17.5348 43.2938 20.2501 43.8066V47.0625C20.2501 47.5803 20.6698 48 21.1876 48H26.8126C27.3304 48 27.7501 47.5803 27.7501 47.0625V43.8065C30.4653 43.2938 33.0656 42.2164 35.353 40.6562L37.5898 42.893C37.9559 43.259 38.5495 43.259 38.9157 42.893L42.8932 38.9155C43.2593 38.5494 43.2593 37.9558 42.8932 37.5896L40.6564 35.3528C42.2166 33.0655 43.2939 30.4652 43.8067 27.7499H47.0625C47.5803 27.7499 48 27.3302 48 26.8124V21.1874C48 20.6697 47.5803 20.25 47.0625 20.25ZM46.125 25.875H43.0133C42.7883 25.875 42.5707 25.956 42.4004 26.1031C42.2301 26.2503 42.1184 26.4538 42.0858 26.6765C41.6509 29.642 40.4733 32.4842 38.6803 34.8958C38.5461 35.0764 38.4812 35.2992 38.4976 35.5236C38.5141 35.748 38.6106 35.959 38.7698 36.1181L40.9043 38.2526L38.2527 40.9043L36.1182 38.7697C35.9591 38.6106 35.7481 38.514 35.5237 38.4976C35.2993 38.4812 35.0765 38.546 34.8959 38.6802C32.4843 40.4732 29.6422 41.6508 26.6766 42.0857C26.4539 42.1183 26.2504 42.23 26.1032 42.4003C25.9561 42.5706 25.8751 42.7882 25.8751 43.0133V46.125H22.1251V43.0133C22.1251 42.7883 22.0441 42.5707 21.897 42.4004C21.7498 42.2301 21.5463 42.1184 21.3236 42.0858C18.3581 41.6509 15.5159 40.4733 13.1043 38.6803C12.9237 38.5461 12.7009 38.4813 12.4765 38.4977C12.2521 38.5141 12.0411 38.6107 11.882 38.7698L9.74738 40.9043L7.09575 38.2527L9.23034 36.1182C9.38943 35.9591 9.486 35.7481 9.50242 35.5237C9.51884 35.2993 9.45402 35.0765 9.31978 34.8959C7.52681 32.4843 6.34922 29.6422 5.91431 26.6766C5.88166 26.4539 5.76998 26.2504 5.59967 26.1032C5.42937 25.9561 5.21182 25.8751 4.98675 25.8751H1.875V22.1251H4.98666C5.21172 22.1251 5.42928 22.0441 5.59958 21.897C5.76988 21.7498 5.88156 21.5463 5.91422 21.3236C6.34912 18.3581 7.52672 15.5159 9.31969 13.1043C9.45394 12.9237 9.51878 12.7009 9.50236 12.4765C9.48594 12.2521 9.38936 12.0411 9.23025 11.882L7.09566 9.74738L9.74728 7.09566L11.8819 9.23025C12.041 9.38937 12.252 9.48597 12.4764 9.50239C12.7008 9.51881 12.9236 9.45396 13.1042 9.31969C15.5158 7.52672 18.3579 6.34912 21.3235 5.91422C21.5462 5.88156 21.7497 5.76988 21.8969 5.59958C22.044 5.42928 22.125 5.21172 22.125 4.98666V1.875H25.875V4.98666C25.875 5.21172 25.956 5.42928 26.1031 5.59958C26.2503 5.76988 26.4538 5.88156 26.6765 5.91422C29.642 6.34912 32.4842 7.52672 34.8958 9.31969C35.0764 9.45394 35.2992 9.51878 35.5236 9.50236C35.748 9.48594 35.959 9.38936 36.1181 9.23025L38.2526 7.09566L40.9043 9.74738L38.7697 11.882C38.6106 12.0411 38.514 12.2521 38.4976 12.4765C38.4812 12.7009 38.546 12.9237 38.6802 13.1043C40.4732 15.5159 41.6508 18.358 42.0857 21.3236C42.1183 21.5463 42.23 21.7498 42.4003 21.897C42.5706 22.0441 42.7882 22.1251 43.0133 22.1251H46.125V25.875Z" fill="#03200E"/>
<path id="Vector_3" d="M24.5494 13.3966C24.3895 13.281 24.1972 13.2188 24 13.2188C23.8027 13.2188 23.6104 13.281 23.4505 13.3966C23.1859 13.588 16.9688 18.1518 16.9688 24C16.9688 29.8482 23.1859 34.4119 23.4506 34.6034C23.46 34.6067 23.85 34.9195 24.3581 34.7101C24.4664 34.6652 24.5588 34.5966 24.5495 34.6034C24.8141 34.4119 31.0312 29.8482 31.0312 24C31.0312 18.1518 24.8141 13.588 24.5494 13.3966ZM24.9375 31.8127V28.5582L27.0639 26.0064C27.3954 25.6086 27.3416 25.0175 26.9439 24.686C26.5463 24.3545 25.9551 24.4084 25.6236 24.806L24.9375 25.6293V20.7187C24.9375 20.2009 24.5178 19.7812 24 19.7812C23.4822 19.7812 23.0625 20.2009 23.0625 20.7187V22.8168L22.3764 21.9935C22.045 21.5958 21.4538 21.5419 21.0561 21.8735C20.6583 22.205 20.6046 22.7961 20.9361 23.1939L23.0625 25.7457V31.8127C21.3716 30.2103 18.8438 27.268 18.8438 24C18.8438 20.0325 22.5697 16.5447 23.9999 15.3524C25.4308 16.5453 29.1562 20.0329 29.1562 24C29.1562 27.268 26.6284 30.2103 24.9375 31.8127Z" fill="#03200E"/>
</g>
</g>
</g>
<defs>
<clipPath id="clip0_1894_21894">
<rect width="48" height="48" fill="white"/>
</clipPath>
</defs>
</svg>
