<svg width="48" height="48" viewBox="0 0 48 48" fill="none" xmlns="http://www.w3.org/2000/svg">
<g id="Frame" clip-path="url(#clip0_1894_21837)">
<g id="Group">
<path id="Vector" d="M24.0004 38.5906C27.8995 38.5906 31.0603 32.0582 31.0603 24C31.0603 15.9419 27.8995 9.40942 24.0004 9.40942C20.1013 9.40942 16.9404 15.9419 16.9404 24C16.9404 32.0582 20.1013 38.5906 24.0004 38.5906Z" fill="#86E7B8"/>
<path id="Vector_2" d="M24.0004 38.5906C27.8995 38.5906 31.0603 32.0582 31.0603 24C31.0603 15.9419 27.8995 9.40942 24.0004 9.40942C20.1013 9.40942 16.9404 15.9419 16.9404 24C16.9404 32.0582 20.1013 38.5906 24.0004 38.5906Z" fill="#86E7B8"/>
<path id="Vector_3" d="M23.9998 38.5906C32.0579 38.5906 38.5904 32.0582 38.5904 24C38.5904 15.9419 32.0579 9.40942 23.9998 9.40942C15.9416 9.40942 9.40918 15.9419 9.40918 24C9.40918 32.0582 15.9416 38.5906 23.9998 38.5906Z" stroke="#03200E" stroke-width="1.875" stroke-miterlimit="10" stroke-linecap="round" stroke-linejoin="round"/>
<path id="Vector_4" d="M24 9.40945V38.5906M13.1879 33.7964C14.178 31.9347 15.6306 30.3592 17.406 29.2215C19.3094 28.0016 21.5722 27.2946 24 27.2946C26.4276 27.2946 28.6905 28.0016 30.594 29.2215C32.3693 30.3592 33.822 31.9347 34.812 33.7964M13.1879 14.2037C14.1779 16.0654 15.6306 17.6409 17.406 18.7785C19.3094 19.9985 21.5722 20.7055 24 20.7055C26.4276 20.7055 28.6905 19.9985 30.594 18.7785C32.3693 17.6409 33.822 16.0654 34.812 14.2037M10.7593 7.46752C13.8167 5.01633 17.5679 3.39539 21.672 2.94727M2.94727 21.6721C3.3953 17.568 5.01623 13.8168 7.46752 10.7594M40.5325 10.7594C42.9837 13.8168 44.6046 17.568 45.0527 21.6721M26.3279 2.94736C30.432 3.39539 34.1832 5.01633 37.2406 7.46761M10.7593 40.5326C13.8167 42.9838 17.5679 44.6047 21.672 45.0528M26.3279 45.0527C30.432 44.6047 34.1832 42.9838 37.2406 40.5325M2.94727 26.328C3.3953 30.4321 5.01623 34.1833 7.46752 37.2407M40.5325 37.2407C42.9837 34.1833 44.6046 30.4321 45.0527 26.328" stroke="#03200E" stroke-width="1.875" stroke-miterlimit="10" stroke-linecap="round" stroke-linejoin="round"/>
<path id="Vector_5" d="M26.3531 3.29081C26.3531 1.99106 25.2995 0.9375 23.9998 0.9375C22.7001 0.9375 21.6465 1.99106 21.6465 3.29081C21.6465 4.59047 22.7 5.64422 23.9998 5.64422C25.2995 5.64413 26.3531 4.59047 26.3531 3.29081Z" stroke="#03200E" stroke-width="1.875" stroke-miterlimit="10" stroke-linecap="round" stroke-linejoin="round"/>
<path id="Vector_6" d="M9.35665 12.6472C8.47765 12.6472 7.65124 12.305 7.02968 11.6835C5.74662 10.4002 5.74662 8.31249 7.02968 7.02942C7.65124 6.40786 8.47765 6.06567 9.35665 6.06567C10.2356 6.06567 11.062 6.40786 11.6835 7.02942C12.9666 8.31249 12.9666 10.4002 11.6836 11.6834C11.062 12.305 10.2356 12.6472 9.35665 12.6472Z" fill="#86E7B8"/>
<path id="Vector_7" d="M3.29081 21.6467C1.99106 21.6467 0.9375 22.7004 0.9375 24C0.9375 25.2997 1.99106 26.3534 3.29081 26.3534C4.59056 26.3534 5.64422 25.2998 5.64422 24C5.64413 22.7004 4.59056 21.6467 3.29081 21.6467Z" stroke="#03200E" stroke-width="1.875" stroke-miterlimit="10" stroke-linecap="round" stroke-linejoin="round"/>
<path id="Vector_8" d="M9.35665 41.9343C8.47765 41.9343 7.65124 41.5921 7.02968 40.9706C5.74662 39.6876 5.74662 37.5998 7.02968 36.3166C7.65124 35.695 8.47765 35.3528 9.35665 35.3528C10.2356 35.3528 11.062 35.695 11.6835 36.3165C12.9666 37.5998 12.9666 39.6875 11.6836 40.9705C11.062 41.592 10.2356 41.9343 9.35665 41.9343Z" fill="#86E7B8"/>
<path id="Vector_9" d="M21.6465 44.7091C21.6465 46.0089 22.7001 47.0624 23.9998 47.0624C25.2995 47.0624 26.3531 46.0089 26.3531 44.7091C26.3531 43.4095 25.2995 42.3557 23.9998 42.3557C22.7001 42.3558 21.6465 43.4095 21.6465 44.7091Z" stroke="#03200E" stroke-width="1.875" stroke-miterlimit="10" stroke-linecap="round" stroke-linejoin="round"/>
<path id="Vector_10" d="M38.6437 41.9343C37.7647 41.9343 36.9384 41.5921 36.3168 40.9706C35.0337 39.6876 35.0337 37.5998 36.3167 36.3166C36.9384 35.695 37.7647 35.3528 38.6437 35.3528C39.5227 35.3528 40.3491 35.695 40.9706 36.3165C42.2537 37.5998 42.2537 39.6875 40.9706 40.9705C40.3492 41.592 39.5227 41.9343 38.6437 41.9343Z" fill="#86E7B8"/>
<path id="Vector_11" d="M44.7089 26.3534C46.0086 26.3534 47.0622 25.2997 47.0622 24C47.0622 22.7004 46.0086 21.6467 44.7089 21.6467C43.4091 21.6467 42.3555 22.7003 42.3555 24C42.3556 25.2997 43.4091 26.3534 44.7089 26.3534Z" stroke="#03200E" stroke-width="1.875" stroke-miterlimit="10" stroke-linecap="round" stroke-linejoin="round"/>
<path id="Vector_12" d="M38.6437 12.6472C37.7647 12.6472 36.9384 12.305 36.3168 11.6835C35.0337 10.4002 35.0337 8.31249 36.3167 7.02942C36.9384 6.40786 37.7647 6.06567 38.6437 6.06567C39.5227 6.06567 40.3491 6.40786 40.9706 7.02942C42.2537 8.31249 42.2537 10.4002 40.9706 11.6834C40.3492 12.305 39.5227 12.6472 38.6437 12.6472Z" fill="#86E7B8"/>
</g>
</g>
<defs>
<clipPath id="clip0_1894_21837">
<rect width="48" height="48" fill="white"/>
</clipPath>
</defs>
</svg>
