<svg width="40" height="40" viewBox="0 0 40 40" fill="none" xmlns="http://www.w3.org/2000/svg">
<rect width="40" height="40" rx="20" fill="url(#paint0_linear_1912_32534)"/>
<g clip-path="url(#clip0_1912_32534)">
<path d="M10.3516 27.3011V21.6416C11.1282 21.6416 11.7578 21.012 11.7578 20.2354H28.2425C28.2425 21.012 28.8721 21.6416 29.6487 21.6416V27.3011C28.8721 27.3011 28.2425 27.9307 28.2425 28.7073H11.7578C11.7578 27.9307 11.1282 27.3011 10.3516 27.3011Z" fill="#86E7B8"/>
<path d="M24.1124 18.3528H16.3584V16.5349C16.3584 14.906 17.6789 13.5854 19.3078 13.5854H21.163C22.7919 13.5854 24.1124 14.906 24.1124 16.5349V18.3528Z" stroke="#03200E" stroke-width="0.9375" stroke-miterlimit="10" stroke-linecap="round" stroke-linejoin="round"/>
<path d="M20.2351 13.5854C21.388 13.5854 22.3227 12.6507 22.3227 11.4978C22.3227 10.3448 21.388 9.41016 20.2351 9.41016C19.0821 9.41016 18.1475 10.3448 18.1475 11.4978C18.1475 12.6507 19.0821 13.5854 20.2351 13.5854Z" stroke="#03200E" stroke-width="0.9375" stroke-miterlimit="10" stroke-linecap="round" stroke-linejoin="round"/>
<path d="M16.8852 14.8614C16.3506 14.0905 15.4596 13.5854 14.45 13.5854H12.6186C10.9831 13.5854 9.65723 14.9113 9.65723 16.5469V18.3529H17.4114" stroke="#03200E" stroke-width="0.9375" stroke-miterlimit="10" stroke-linecap="round" stroke-linejoin="round"/>
<path d="M13.5339 13.5854C14.6869 13.5854 15.6215 12.6507 15.6215 11.4978C15.6215 10.3448 14.6869 9.41016 13.5339 9.41016C12.381 9.41016 11.4463 10.3448 11.4463 11.4978C11.4463 12.6507 12.381 13.5854 13.5339 13.5854Z" stroke="#03200E" stroke-width="0.9375" stroke-miterlimit="10" stroke-linecap="round" stroke-linejoin="round"/>
<path d="M23.5862 14.8614C24.1204 14.0905 25.0114 13.5854 26.0209 13.5854H27.8523C29.4878 13.5854 30.8137 14.9113 30.8137 16.5469V18.3529H23.0596" stroke="#03200E" stroke-width="0.9375" stroke-miterlimit="10" stroke-linecap="round" stroke-linejoin="round"/>
<path d="M26.9363 13.5854C28.0892 13.5854 29.0239 12.6507 29.0239 11.4978C29.0239 10.3448 28.0892 9.41016 26.9363 9.41016C25.7833 9.41016 24.8486 10.3448 24.8486 11.4978C24.8486 12.6507 25.7833 13.5854 26.9363 13.5854Z" stroke="#03200E" stroke-width="0.9375" stroke-miterlimit="10" stroke-linecap="round" stroke-linejoin="round"/>
<path d="M22.3236 24.8486C22.5319 23.5657 21.6606 22.3569 20.3777 22.1487C19.0948 21.9404 17.886 22.8117 17.6778 24.0946C17.4696 25.3775 18.3408 26.5863 19.6237 26.7945C20.9066 27.0027 22.1154 26.1315 22.3236 24.8486Z" stroke="#03200E" stroke-width="0.9375" stroke-miterlimit="10" stroke-linecap="round" stroke-linejoin="round"/>
<path d="M13.1754 24.4714H14.8227M25.1773 24.4714H26.8246M8.46875 29.6525V19.2903C8.46875 18.7725 8.88847 18.3528 9.40625 18.3528H30.5938C31.1115 18.3528 31.5312 18.7725 31.5312 19.2903V29.6525C31.5312 30.1703 31.1115 30.59 30.5938 30.59H9.40625C8.88847 30.59 8.46875 30.1703 8.46875 29.6525Z" stroke="#03200E" stroke-width="0.9375" stroke-miterlimit="10" stroke-linecap="round" stroke-linejoin="round"/>
</g>
<defs>
<linearGradient id="paint0_linear_1912_32534" x1="40" y1="29.8182" x2="2.74612" y2="30.8056" gradientUnits="userSpaceOnUse">
<stop stop-color="#E6F3EB"/>
<stop offset="0.27586" stop-color="#E7F4E6"/>
<stop offset="1" stop-color="#FEFBF0"/>
</linearGradient>
<clipPath id="clip0_1912_32534">
<rect width="24" height="24" fill="white" transform="translate(8 8)"/>
</clipPath>
</defs>
</svg>
