<svg width="40" height="40" viewBox="0 0 40 40" fill="none" xmlns="http://www.w3.org/2000/svg">
<rect width="40" height="40" rx="20" fill="url(#paint0_linear_1912_32499)"/>
<path fill-rule="evenodd" clip-rule="evenodd" d="M11.0771 19.9354H14.8746V18.5509C14.8746 17.4508 15.2374 16.4316 15.8499 15.6065C15.6789 15.6407 15.5048 15.6581 15.3304 15.6583C14.6621 15.6583 14.0522 15.4085 13.5898 14.9966C12.1162 15.6251 11.0772 17.0894 11.0772 18.7861L11.0771 19.9354ZM25.1243 19.9354H28.9218V18.7861C28.9218 17.0893 27.8827 15.6251 26.4092 14.9966C25.9455 15.4085 25.3356 15.6583 24.6673 15.6583C24.4933 15.6579 24.3197 15.6406 24.1491 15.6064C24.7616 16.4316 25.1244 17.4507 25.1244 18.5509V19.9354H25.1243Z" fill="#86E7B8"/>
<path d="M19.9998 14.7828C21.7391 14.7828 23.1568 13.3651 23.1568 11.6258C23.1568 9.88648 21.7391 8.46875 19.9998 8.46875C18.2605 8.46875 16.8428 9.88648 16.8428 11.6258C16.8428 13.3651 18.2605 14.7828 19.9998 14.7828Z" stroke="#03200E" stroke-width="0.9375" stroke-miterlimit="10" stroke-linecap="round" stroke-linejoin="round"/>
<path d="M22.0966 13.9856C23.8717 14.743 25.1247 16.5075 25.1247 18.5511V19.9356M14.875 19.9356V18.5511C14.875 16.5075 16.128 14.743 17.9031 13.9856" stroke="#03200E" stroke-width="0.9375" stroke-miterlimit="10" stroke-linecap="round" stroke-linejoin="round"/>
<path d="M24.1495 15.6067C24.3201 15.6408 24.4937 15.6582 24.6677 15.6585C26.116 15.6585 27.2892 14.4853 27.2892 13.037C27.2892 11.59 26.116 10.4168 24.6677 10.4168C24.0724 10.4168 23.5237 10.6148 23.0839 10.9496M15.8504 15.6067C15.6793 15.6409 15.5053 15.6582 15.3308 15.6585C13.8839 15.6585 12.7106 14.4853 12.7106 13.037C12.7106 11.59 13.8839 10.4168 15.3308 10.4168C15.9034 10.4158 16.4603 10.603 16.916 10.9496M29.9041 19.9356V23.3172H28.3775C28.1594 24.4014 27.732 25.4327 27.1192 26.3533L28.1994 27.4349L25.8077 29.8253L24.7275 28.745C23.8213 29.3483 22.7942 29.7827 21.6914 30.0046V31.5313H18.3085V30.0046C17.2043 29.7827 16.1786 29.3483 15.2724 28.745L14.1921 29.8253L11.8004 27.4349L12.8806 26.3533C12.2678 25.4327 11.8404 24.4014 11.6223 23.3172H10.0957V19.9357L29.9041 19.9356Z" stroke="#03200E" stroke-width="0.9375" stroke-miterlimit="10" stroke-linecap="round" stroke-linejoin="round"/>
<path d="M24.1838 19.9355C24.4011 20.473 24.5125 21.0473 24.512 21.627C24.512 24.1183 22.491 26.138 19.9996 26.138C17.507 26.138 15.4873 24.1183 15.4873 21.627C15.4868 21.0473 15.5982 20.473 15.8155 19.9355" stroke="#03200E" stroke-width="0.9375" stroke-miterlimit="10" stroke-linecap="round" stroke-linejoin="round"/>
<defs>
<linearGradient id="paint0_linear_1912_32499" x1="40" y1="29.8182" x2="2.74612" y2="30.8056" gradientUnits="userSpaceOnUse">
<stop stop-color="#E6F3EB"/>
<stop offset="0.27586" stop-color="#E7F4E6"/>
<stop offset="1" stop-color="#FEFBF0"/>
</linearGradient>
</defs>
</svg>
