<svg width="40" height="40" viewBox="0 0 40 40" fill="none" xmlns="http://www.w3.org/2000/svg">
<rect width="40" height="40" rx="20" fill="url(#paint0_linear_1912_32511)"/>
<g clip-path="url(#clip0_1912_32511)">
<path fill-rule="evenodd" clip-rule="evenodd" d="M20 27.0313C23.8726 27.0313 27.0312 23.8727 27.0312 20.0001C26.6715 10.6862 13.327 10.6887 12.9688 20.0002C12.9688 23.8727 16.1273 27.0313 20 27.0313Z" fill="#86E7B8"/>
<path d="M31.5692 17.8922L30.0705 17.7703C29.8109 16.5896 29.3499 15.4778 28.6967 14.4566L29.6711 13.3097C29.7474 13.22 29.787 13.1049 29.7823 12.9872C29.7775 12.8696 29.7286 12.758 29.6454 12.6748L27.3252 10.3546C27.242 10.2713 27.1304 10.2224 27.0128 10.2176C26.8951 10.2129 26.78 10.2525 26.6903 10.3288L25.5433 11.3033C24.5222 10.6501 23.4104 10.1892 22.2297 9.92965L22.1078 8.43068C22.0983 8.31333 22.0449 8.20388 21.9583 8.12408C21.8718 8.04428 21.7583 7.99999 21.6406 8H18.3594C18.2416 8 18.1282 8.04431 18.0416 8.12412C17.9551 8.20392 17.9017 8.31338 17.8922 8.43073L17.7703 9.92974C16.59 10.1893 15.4783 10.6502 14.4569 11.3035L13.3097 10.3289C13.22 10.2527 13.1049 10.213 12.9872 10.2178C12.8696 10.2226 12.758 10.2714 12.6748 10.3547L10.3546 12.6748C10.2714 12.758 10.2225 12.8696 10.2177 12.9872C10.213 13.1049 10.2526 13.22 10.3289 13.3097L11.3034 14.4567C10.6502 15.4777 10.1892 16.5895 9.92941 17.7703L8.43078 17.8922C8.31342 17.9017 8.20395 17.9551 8.12413 18.0416C8.04432 18.1282 8 18.2416 8 18.3594V21.6406C8 21.7583 8.04431 21.8718 8.12412 21.9583C8.20392 22.0449 8.31338 22.0982 8.43073 22.1078L9.92974 22.2297C10.1893 23.41 10.6502 24.5217 11.3034 25.5431L10.3288 26.6903C10.2526 26.78 10.2129 26.8951 10.2177 27.0128C10.2224 27.1304 10.2713 27.242 10.3546 27.3252L12.6747 29.6454C12.758 29.7287 12.8695 29.7776 12.9872 29.7824C13.1048 29.7871 13.22 29.7475 13.3097 29.6712L14.4566 28.6967C15.4777 29.35 16.5895 29.811 17.7702 30.0707L17.8921 31.5694C17.9016 31.6867 17.955 31.7962 18.0415 31.876C18.1281 31.9558 18.2415 32.0001 18.3593 32.0001H21.6405C21.7582 32.0001 21.8717 31.9558 21.9582 31.876C22.0448 31.7962 22.0981 31.6867 22.1077 31.5694L22.2296 30.0704C23.4098 29.8108 24.5215 29.3499 25.543 28.6966L26.6901 29.6713C26.7799 29.7475 26.895 29.7872 27.0126 29.7824C27.1303 29.7776 27.2418 29.7287 27.3251 29.6455L29.6453 27.3253C29.7285 27.242 29.7774 27.1305 29.7822 27.0128C29.787 26.8952 29.7473 26.78 29.671 26.6903L28.6965 25.5434C29.3497 24.5224 29.8108 23.4105 30.0705 22.2298L31.5691 22.1079C31.6865 22.0983 31.796 22.045 31.8758 21.9584C31.9556 21.8719 31.9999 21.7584 31.9999 21.6407V18.3595C32 18.2417 31.9557 18.1282 31.8759 18.0416C31.7961 17.9551 31.6866 17.9017 31.5692 17.8922ZM31.0625 21.2084L29.643 21.3238C29.5403 21.3322 29.4431 21.3741 29.3667 21.4433C29.2902 21.5124 29.2386 21.6048 29.22 21.7062C28.9808 23.0065 28.4778 24.2196 27.7251 25.3119C27.6666 25.3968 27.6377 25.4986 27.6429 25.6015C27.6481 25.7045 27.6871 25.8028 27.7538 25.8814L28.6769 26.9678L26.9679 28.6768L25.8813 27.7537C25.8028 27.6869 25.7044 27.6479 25.6015 27.6427C25.4985 27.6375 25.3967 27.6664 25.3119 27.7249C24.219 28.4778 23.006 28.9807 21.7064 29.2196C21.605 29.2383 21.5125 29.2898 21.4434 29.3663C21.3743 29.4427 21.3323 29.5399 21.3239 29.6426L21.2085 31.0625H18.7916L18.6762 29.643C18.6679 29.5403 18.6259 29.4431 18.5567 29.3667C18.4876 29.2902 18.3952 29.2387 18.2938 29.22C16.9935 28.9808 15.7804 28.4778 14.6881 27.725C14.6032 27.6666 14.5015 27.6377 14.3985 27.6429C14.2956 27.6481 14.1972 27.6871 14.1187 27.7538L13.0322 28.6768L11.3232 26.9678L12.2464 25.8813C12.3131 25.8027 12.3521 25.7044 12.3573 25.6014C12.3625 25.4985 12.3336 25.3967 12.2752 25.3119C11.5223 24.219 11.0194 23.0059 10.7805 21.7063C10.7618 21.6049 10.7103 21.5125 10.6338 21.4433C10.5573 21.3742 10.4602 21.3322 10.3574 21.3239L8.93749 21.2084V18.7915L10.357 18.6761C10.4597 18.6678 10.5569 18.6258 10.6333 18.5566C10.7098 18.4875 10.7614 18.3951 10.78 18.2937C11.0192 16.9934 11.5222 15.7803 12.2749 14.6881C12.3334 14.6032 12.3623 14.5014 12.3571 14.3985C12.3519 14.2955 12.3129 14.1972 12.2462 14.1186L11.3231 13.0321L13.0321 11.3232L14.1187 12.2463C14.1972 12.3131 14.2956 12.3521 14.3985 12.3573C14.5015 12.3625 14.6033 12.3336 14.6881 12.2751C15.781 11.5222 16.994 11.0193 18.2936 10.7803C18.395 10.7617 18.4875 10.7101 18.5566 10.6337C18.6257 10.5572 18.6677 10.4601 18.6761 10.3573L18.7916 8.93749H21.2085L21.3239 10.3573C21.3322 10.4601 21.3742 10.5572 21.4434 10.6337C21.5125 10.7101 21.6049 10.7617 21.7063 10.7803C23.0065 11.0194 24.2196 11.5222 25.312 12.2749C25.3969 12.3333 25.4987 12.3622 25.6016 12.357C25.7045 12.3518 25.8029 12.3129 25.8814 12.2461L26.9679 11.3231L28.6768 13.0321L27.7539 14.1185C27.6871 14.197 27.6481 14.2954 27.6429 14.3983C27.6377 14.5012 27.6666 14.603 27.7251 14.6879C28.4779 15.7804 28.9808 16.9936 29.2198 18.2937C29.2385 18.3951 29.29 18.4875 29.3665 18.5567C29.443 18.6258 29.5401 18.6678 29.6429 18.6761L31.0625 18.7915L31.0625 21.2084Z" fill="#03200E"/>
<path d="M23.6964 22.3279H23.2813V21.824C23.2813 20.7529 22.7421 19.7366 21.8619 19.1257C22.0031 18.8404 22.0764 18.5263 22.076 18.208V17.4044C21.9713 14.6536 18.0279 14.6556 17.9242 17.4044V18.208C17.9238 18.5263 17.9971 18.8404 18.1383 19.1257C17.258 19.7365 16.7188 20.7529 16.7188 21.824V22.3279H16.3037C15.6824 22.3509 15.6829 23.2425 16.3037 23.2654H23.6964C24.3177 23.2423 24.3172 22.3507 23.6964 22.3279ZM18.8617 17.4044C18.8617 16.7767 19.3724 16.2661 20.0001 16.2661H20.0001C20.6278 16.2661 21.1385 16.7768 21.1385 17.4044V18.208C21.0811 19.7165 18.9186 19.7154 18.8617 18.208V17.4044ZM17.6563 21.824C17.6563 21.034 18.0684 20.285 18.736 19.8535C19.4341 20.4214 20.5661 20.4214 21.2642 19.8535C21.9317 20.285 22.3438 21.0339 22.3438 21.824V22.3279H17.6563V21.824Z" fill="#03200E"/>
</g>
<defs>
<linearGradient id="paint0_linear_1912_32511" x1="40" y1="29.8182" x2="2.74612" y2="30.8056" gradientUnits="userSpaceOnUse">
<stop stop-color="#E6F3EB"/>
<stop offset="0.27586" stop-color="#E7F4E6"/>
<stop offset="1" stop-color="#FEFBF0"/>
</linearGradient>
<clipPath id="clip0_1912_32511">
<rect width="24" height="24" fill="white" transform="translate(8 8)"/>
</clipPath>
</defs>
</svg>
