<svg width="48" height="48" viewBox="0 0 48 48" fill="none" xmlns="http://www.w3.org/2000/svg">
<g id="Frame">
<g id="Group">
<path id="Vector" fill-rule="evenodd" clip-rule="evenodd" d="M7.90234 13.7305V18.4652C7.90234 20.5479 9.60681 22.2529 11.69 22.2529H11.8366C11.7389 21.6264 11.69 20.9932 11.6901 20.3591V14.6774L7.90234 13.7305Z" fill="#53D495"/>
<path id="Vector_2" d="M36.3105 6.32324V20.3588C36.3105 23.5328 35.093 26.4363 33.102 28.6253M14.9969 28.7318C12.9479 26.531 11.6904 23.5846 11.6904 20.3587V13.6356M19.5526 22.2527V22.7261M28.4483 22.2527V22.7261M16.7118 18.4649H20.4995M27.5015 18.4649H31.2891M25.5865 26.5138C25.1043 26.7922 24.5573 26.9388 24.0005 26.9388C23.4436 26.9388 22.8966 26.7922 22.4144 26.5138" stroke="#03200E" stroke-width="1.87501" stroke-miterlimit="22.9256" stroke-linecap="round" stroke-linejoin="round"/>
<path id="Vector_3" d="M15.1319 44.5893L23.9999 47.0626L32.8984 44.5809M35.363 38.0668V28.124L23.9999 31.2931M23.9999 31.2931L12.6367 28.124V38.0667M23.9999 31.2931V46.5697" stroke="#03200E" stroke-width="1.87501" stroke-miterlimit="22.9256" stroke-linecap="round" stroke-linejoin="round"/>
<path id="Vector_4" fill-rule="evenodd" clip-rule="evenodd" d="M12.637 38.5403H13.1105C14.9334 38.5403 16.4248 40.0317 16.4248 41.8545C16.4248 43.6774 14.9334 45.1688 13.1105 45.1688H12.637C11.5954 45.1688 10.7432 44.3166 10.7432 43.2749V40.4341C10.7432 39.3925 11.5954 38.5403 12.637 38.5403ZM35.3633 38.5403H34.8898C33.0669 38.5403 31.5755 40.0317 31.5755 41.8545C31.5755 43.6774 33.0669 45.1688 34.8898 45.1688H35.3633C36.405 45.1688 37.2572 44.3166 37.2572 43.2749V40.4341C37.2572 39.3925 36.405 38.5403 35.3633 38.5403Z" stroke="#03200E" stroke-width="1.87501" stroke-miterlimit="22.9256" stroke-linecap="round" stroke-linejoin="round"/>
<path id="Vector_5" fill-rule="evenodd" clip-rule="evenodd" d="M11.69 15.1508C13.782 15.1508 15.4777 13.455 15.4777 11.3632H31.102C36.0497 11.3632 40.0978 7.31512 40.0978 2.36738V0H18.792C16.7 0 15.0043 1.69584 15.0043 3.78778C11.0035 3.78778 7.90234 6.88959 7.90234 10.8897V14.6774L11.69 15.1508Z" fill="#53D495"/>
</g>
</g>
</svg>
