<svg width="64" height="65" viewBox="0 0 64 65" fill="none" xmlns="http://www.w3.org/2000/svg">
<g clip-path="url(#clip0_1894_21575)">
<path fill-rule="evenodd" clip-rule="evenodd" d="M10.5381 18.7188V25.0318C10.5381 27.8087 12.8107 30.0821 15.5883 30.0821H15.7837C15.6535 29.2467 15.5882 28.4024 15.5885 27.5569V19.9814L10.5381 18.7188Z" fill="#86E7B8"/>
<path d="M48.4156 8.84271V27.5568C48.4156 31.7888 46.7922 35.6601 44.1376 38.5788M19.9975 38.7208C17.2655 35.7863 15.5889 31.8578 15.5889 27.5567V18.5925M26.0717 30.082V30.7132M37.9327 30.082V30.7132M22.284 25.0316H27.3342M36.6702 25.0316H41.7205M34.117 35.7635C33.474 36.1347 32.7447 36.3301 32.0022 36.3301C31.2598 36.3301 30.5305 36.1347 29.8875 35.7635" stroke="#03200E" stroke-width="2.28404" stroke-miterlimit="22.9256" stroke-linecap="round" stroke-linejoin="round"/>
<path d="M20.1784 59.8639L32.0024 63.1615L43.8672 59.8527M47.1533 51.1672V37.9102L32.0024 42.1355M32.0024 42.1355L16.8516 37.9102V51.167M32.0024 42.1355V62.5044" stroke="#03200E" stroke-width="2.28404" stroke-miterlimit="22.9256" stroke-linecap="round" stroke-linejoin="round"/>
<path fill-rule="evenodd" clip-rule="evenodd" d="M16.8513 51.7983H17.4827C19.9132 51.7983 21.9017 53.7868 21.9017 56.2173C21.9017 58.6478 19.9132 60.6363 17.4827 60.6363H16.8513C15.4624 60.6363 14.3262 59.5001 14.3262 58.1112V54.3235C14.3262 52.9346 15.4624 51.7983 16.8513 51.7983ZM47.153 51.7983H46.5217C44.0912 51.7983 42.1027 53.7868 42.1027 56.2173C42.1027 58.6478 44.0912 60.6363 46.5217 60.6363H47.153C48.5419 60.6363 49.6782 59.5001 49.6782 58.1112V54.3235C49.6782 52.9346 48.5419 51.7983 47.153 51.7983Z" stroke="#03200E" stroke-width="2.28404" stroke-miterlimit="22.9256" stroke-linecap="round" stroke-linejoin="round"/>
<path fill-rule="evenodd" clip-rule="evenodd" d="M15.5883 20.6127C18.3776 20.6127 20.6386 18.3516 20.6386 15.5625H41.471C48.0678 15.5625 53.4653 10.1651 53.4653 3.56812V0.411621H25.0576C22.2683 0.411621 20.0073 2.67275 20.0073 5.462C14.673 5.462 10.5381 9.59774 10.5381 14.9312V19.9815L15.5883 20.6127Z" fill="#86E7B8"/>
</g>
<defs>
<clipPath id="clip0_1894_21575">
<rect width="64" height="64" fill="white" transform="translate(0 0.411621)"/>
</clipPath>
</defs>
</svg>
