<svg width="65" height="65" viewBox="0 0 65 65" fill="none" xmlns="http://www.w3.org/2000/svg">
<g id="community 1" clip-path="url(#clip0_1894_21618)">
<g id="Group">
<g id="Group_2">
<path id="XMLID_925_" d="M17.2531 21.2299C12.6426 21.2299 8.79719 24.504 7.91406 28.8539H9.62906C13.8398 28.8538 17.2531 25.4404 17.2531 21.2299Z" fill="#86E7B8"/>
<path id="XMLID_924_" d="M17.2539 21.2299C17.2539 25.4405 20.6673 28.8539 24.8779 28.8539H26.5929C25.7098 24.5039 21.8643 21.2299 17.2539 21.2299Z" fill="#86E7B8"/>
<path id="XMLID_923_" d="M14.7522 21.5637C15.5495 21.3473 16.3875 21.2297 17.2534 21.2297C18.1193 21.2297 18.9573 21.3473 19.7547 21.5637C20.5573 20.8648 21.0654 19.8363 21.0654 18.6885C21.0654 16.5832 19.3587 14.8765 17.2534 14.8765C15.1482 14.8765 13.4414 16.5831 13.4414 18.6885C13.4414 19.8363 13.9494 20.8648 14.7522 21.5637Z" fill="#86E7B8"/>
</g>
<g id="Group_3">
<path id="XMLID_936_" d="M57.2894 27.582V36.177C57.2894 38.7764 56.2351 41.1297 54.5319 42.8328C52.8288 44.5359 50.4754 45.5903 47.8761 45.5903C42.6775 45.5903 38.4629 41.3757 38.4629 36.177V27.7979" stroke="#03200E" stroke-width="2.28403" stroke-miterlimit="10" stroke-linecap="round" stroke-linejoin="round"/>
<path id="XMLID_935_" d="M50.0936 39.43C48.8682 40.6554 46.8815 40.6554 45.6562 39.43" stroke="#03200E" stroke-width="2.28403" stroke-miterlimit="10" stroke-linecap="round" stroke-linejoin="round"/>
<circle id="XMLID_934_" cx="43.4824" cy="32.8183" r="1.25" fill="#03200E"/>
<circle id="XMLID_933_" cx="52.2686" cy="32.8183" r="1.25" fill="#03200E"/>
<path id="XMLID_931_" d="M19.4973 39.3599C18.2568 40.6004 16.2454 40.6004 15.0049 39.3599" stroke="#03200E" stroke-width="2.28403" stroke-miterlimit="10" stroke-linecap="round" stroke-linejoin="round"/>
<path id="XMLID_930_" d="M12.8048 44.494V46.2308C12.8048 47.9851 11.3825 49.4074 9.62813 49.4074H9.374C5.16337 49.4074 1.75 52.8208 1.75 57.0314V63.1615H32.5V57.0314C32.5 52.8208 29.0866 49.4074 24.876 49.4074C23.1216 49.4074 21.6994 47.9851 21.6994 46.2308V44.494" stroke="#03200E" stroke-width="2.28403" stroke-miterlimit="10" stroke-linecap="round" stroke-linejoin="round"/>
<circle id="XMLID_929_" cx="12.8057" cy="33.9365" r="1.25" fill="#03200E"/>
<circle id="XMLID_928_" cx="21.6992" cy="33.9365" r="1.25" fill="#03200E"/>
<path id="XMLID_927_" d="M8.10352 58.0792V63.1618" stroke="#03200E" stroke-width="2.28403" stroke-miterlimit="10" stroke-linecap="round" stroke-linejoin="round"/>
<path id="XMLID_926_" d="M26.1465 58.0792V63.1618" stroke="#03200E" stroke-width="2.28403" stroke-miterlimit="10" stroke-linecap="round" stroke-linejoin="round"/>
<path id="XMLID_922_" d="M17.2525 21.23C22.5158 21.23 26.7825 25.4967 26.7825 30.76V36.0662C26.7825 38.6977 25.7152 41.0802 23.9909 42.8045C22.2429 44.5525 19.8185 45.6254 17.1439 45.5955C11.9032 45.537 7.72266 41.1852 7.72266 35.9442V30.7599C7.72253 25.4966 11.9892 21.23 17.2525 21.23Z" stroke="#03200E" stroke-width="2.28403" stroke-miterlimit="10" stroke-linecap="round" stroke-linejoin="round"/>
<path id="XMLID_921_" d="M43.5547 49.4074L48.0021 52.9963L52.4493 49.4074" stroke="#03200E" stroke-width="2.28403" stroke-miterlimit="10" stroke-linecap="round" stroke-linejoin="round"/>
<path id="XMLID_918_" d="M43.5547 44.4937V49.407H40.124C35.9134 49.407 32.5 52.8204 32.5 57.031V63.1611H63.25V57.031C63.25 52.8204 59.8366 49.407 55.626 49.407H52.4494V44.4937" stroke="#03200E" stroke-width="2.28403" stroke-miterlimit="10" stroke-linecap="round" stroke-linejoin="round"/>
<path id="XMLID_917_" d="M38.8525 58.0791V63.1617" stroke="#03200E" stroke-width="2.28403" stroke-miterlimit="10" stroke-linecap="round" stroke-linejoin="round"/>
<path id="XMLID_916_" d="M56.8965 58.0791V63.1617" stroke="#03200E" stroke-width="2.28403" stroke-miterlimit="10" stroke-linecap="round" stroke-linejoin="round"/>
<path id="XMLID_915_" d="M7.75 49.5803C9.58875 52.8712 13.1055 55.0952 17.1432 55.0952C21.1771 55.0952 24.6914 52.8737 26.5314 49.5878" stroke="#03200E" stroke-width="2.28403" stroke-miterlimit="10" stroke-linecap="round" stroke-linejoin="round"/>
<circle id="XMLID_914_" cx="27.4795" cy="7.31006" r="1.25" fill="#03200E"/>
<circle id="XMLID_913_" cx="32.5" cy="7.31006" r="1.25" fill="#03200E"/>
<circle id="XMLID_911_" cx="37.5205" cy="7.31018" r="1.25" fill="#03200E"/>
<path id="XMLID_902_" d="M40.6595 1.66162H24.3433C22.9569 1.66162 21.833 2.7855 21.833 4.17187V10.4474C21.833 11.8337 22.9569 12.9576 24.3433 12.9576H29.3636L32.5014 16.7229L35.6391 12.9575H40.6595C42.0459 12.9575 43.1698 11.8336 43.1698 10.4472V4.17187C43.1698 2.7855 42.0459 1.66162 40.6595 1.66162Z" stroke="#03200E" stroke-width="2.28403" stroke-miterlimit="10" stroke-linecap="round" stroke-linejoin="round"/>
</g>
<g id="XMLID_932_">
<path id="Vector" d="M55.4048 29.0473H37.2109V27.7973C37.2109 24.3398 40.0238 21.527 43.4813 21.527H48.5017C49.8887 21.527 51.0169 20.3987 51.0169 19.0117V17.7617H55.4047C58.5162 17.7617 61.0476 20.2931 61.0476 23.4046C61.0476 26.5161 58.5163 29.0473 55.4048 29.0473Z" fill="#86E7B8"/>
</g>
</g>
</g>
<defs>
<clipPath id="clip0_1894_21618">
<rect width="64" height="64" fill="white" transform="translate(0.5 0.411621)"/>
</clipPath>
</defs>
</svg>
