<svg width="129" height="40" viewBox="0 0 129 40" fill="none" xmlns="http://www.w3.org/2000/svg">
<mask id="path-1-inside-1_1698_2868" fill="white">
<path d="M36 20C36 23.1423 35.0458 26.215 33.2565 28.8348C31.4672 31.4546 28.922 33.5055 25.9384 34.7317C22.9548 35.9578 19.6649 36.3049 16.4792 35.7296C13.2935 35.1543 10.353 33.6821 8.02455 31.4967C5.69612 29.3113 4.08285 26.5094 3.38602 23.4407C2.68918 20.3719 2.93963 17.1721 4.10611 14.2405C5.27259 11.3088 7.30346 8.77515 9.94535 6.95555C12.5872 5.13595 15.7232 4.11098 18.9619 4.00851L19.1842 10.6145C17.2834 10.6747 15.4429 11.2762 13.8923 12.3441C12.3418 13.4121 11.1499 14.8991 10.4652 16.6197C9.78063 18.3403 9.63364 20.2183 10.0426 22.0193C10.4516 23.8204 11.3984 25.4648 12.765 26.7475C14.1316 28.0301 15.8574 28.8941 17.7271 29.2318C19.5968 29.5694 21.5276 29.3657 23.2787 28.6461C25.0298 27.9265 26.5236 26.7228 27.5738 25.1852C28.6239 23.6476 29.1839 21.8442 29.1839 20H36Z"/>
</mask>
<path d="M36 20C36 23.1423 35.0458 26.215 33.2565 28.8348C31.4672 31.4546 28.922 33.5055 25.9384 34.7317C22.9548 35.9578 19.6649 36.3049 16.4792 35.7296C13.2935 35.1543 10.353 33.6821 8.02455 31.4967C5.69612 29.3113 4.08285 26.5094 3.38602 23.4407C2.68918 20.3719 2.93963 17.1721 4.10611 14.2405C5.27259 11.3088 7.30346 8.77515 9.94535 6.95555C12.5872 5.13595 15.7232 4.11098 18.9619 4.00851L19.1842 10.6145C17.2834 10.6747 15.4429 11.2762 13.8923 12.3441C12.3418 13.4121 11.1499 14.8991 10.4652 16.6197C9.78063 18.3403 9.63364 20.2183 10.0426 22.0193C10.4516 23.8204 11.3984 25.4648 12.765 26.7475C14.1316 28.0301 15.8574 28.8941 17.7271 29.2318C19.5968 29.5694 21.5276 29.3657 23.2787 28.6461C25.0298 27.9265 26.5236 26.7228 27.5738 25.1852C28.6239 23.6476 29.1839 21.8442 29.1839 20H36Z" stroke="#53D495" stroke-width="20" mask="url(#path-1-inside-1_1698_2868)"/>
<g clip-path="url(#clip0_1698_2868)">
<path d="M35.31 10.6535C33.6154 10.8567 32.0383 11.6232 30.8315 12.83C29.6247 14.0368 28.8582 15.614 28.655 17.3085C28.4522 15.6138 27.6858 14.0365 26.479 12.8296C25.2721 11.6227 23.6947 10.8563 22 10.6535C23.6945 10.4504 25.2717 9.68388 26.4785 8.47707C27.6853 7.27027 28.4518 5.69308 28.655 3.99854C28.8582 5.69308 29.6247 7.27027 30.8315 8.47707C32.0383 9.68388 33.6154 10.4504 35.31 10.6535Z" fill="#03200E"/>
</g>
<g clip-path="url(#clip1_1698_2868)">
<path d="M23.7957 19.9992C22.7174 20.1285 21.7137 20.6162 20.9458 21.3842C20.1778 22.1522 19.69 23.1558 19.5607 24.2342C19.4317 23.1557 18.944 22.1519 18.176 21.3839C17.408 20.6159 16.4042 20.1282 15.3257 19.9992C16.4041 19.8699 17.4078 19.3821 18.1757 18.6141C18.9437 17.8462 19.4314 16.8425 19.5607 15.7642C19.69 16.8425 20.1778 17.8462 20.9458 18.6141C21.7137 19.3821 22.7174 19.8699 23.7957 19.9992Z" fill="#03200E"/>
</g>
<path d="M67.608 20.612C67.608 26.94 63.436 31.336 57.416 31.336C51.424 31.336 47.308 26.968 47.308 20.64C47.308 14.312 51.452 9.916 57.444 9.916C63.464 9.916 67.608 14.284 67.608 20.612ZM62.82 20.612C62.82 16.664 60.804 14.284 57.472 14.284C54.112 14.284 52.096 16.664 52.096 20.612C52.096 24.588 54.112 26.968 57.472 26.968C60.804 26.968 62.82 24.532 62.82 20.612ZM69.4805 23.944C69.4805 19.632 72.4485 16.552 76.6485 16.552C80.7925 16.552 83.5365 18.82 83.8165 22.488H79.4765C79.1685 21.088 78.3005 20.416 76.8165 20.416C74.9965 20.416 73.8205 21.788 73.8205 23.944C73.8205 26.184 74.9125 27.5 76.7605 27.5C78.2725 27.5 79.1965 26.8 79.4765 25.428H83.8165C83.5365 28.956 80.6805 31.364 76.7605 31.364C72.3365 31.364 69.4805 28.424 69.4805 23.944ZM92.6739 31.364C88.4459 31.364 85.4219 28.284 85.4219 23.972C85.4219 19.604 88.3619 16.552 92.5899 16.552C96.9859 16.552 99.7299 19.436 99.7299 24V25.092L89.5659 25.148C89.8179 26.996 90.8539 27.864 92.7579 27.864C94.3819 27.864 95.5299 27.276 95.8379 26.268H99.7859C99.2819 29.376 96.5099 31.364 92.6739 31.364ZM92.6179 20.052C90.9099 20.052 89.9579 20.808 89.6219 22.488H95.4459C95.4459 21.004 94.3539 20.052 92.6179 20.052ZM111.915 17V21.06H110.543C108.079 21.06 106.595 22.152 106.595 24.924V31H102.283V17.028H106.343L106.567 19.1C107.155 17.728 108.387 16.804 110.263 16.804C110.767 16.804 111.327 16.86 111.915 17ZM117.777 31.364C114.809 31.364 112.961 29.628 112.961 26.884C112.961 24.308 114.781 22.712 118.141 22.46L122.061 22.152V21.928C122.061 20.556 121.221 19.828 119.681 19.828C117.861 19.828 116.881 20.528 116.881 21.788H113.297C113.297 18.624 115.901 16.552 119.905 16.552C123.965 16.552 126.261 18.82 126.261 22.824V31H122.453L122.173 29.152C121.725 30.44 119.877 31.364 117.777 31.364ZM119.289 28.172C120.941 28.172 122.089 27.36 122.089 25.764V25.008L119.905 25.204C118.029 25.372 117.357 25.792 117.357 26.688C117.357 27.696 117.973 28.172 119.289 28.172Z" fill="#03200E"/>
<defs>
<clipPath id="clip0_1698_2868">
<rect width="13.31" height="13.31" fill="white" transform="translate(22 4)"/>
</clipPath>
<clipPath id="clip1_1698_2868">
<rect width="8.47" height="8.47" fill="white" transform="translate(15.3257 15.7651)"/>
</clipPath>
</defs>
</svg>
