<svg width="60" height="60" viewBox="0 0 60 60" fill="none" xmlns="http://www.w3.org/2000/svg">
<g id="coding 1" clip-path="url(#clip0_572_431)">
<g id="Group">
<g id="Group_2">
<path id="XMLID_138_" d="M30.0011 47.6476C39.7473 47.6476 47.6482 39.7468 47.6482 30.0006C47.6482 20.2544 39.7473 12.3535 30.0011 12.3535C20.2549 12.3535 12.3541 20.2544 12.3541 30.0006C12.3541 39.7468 20.2549 47.6476 30.0011 47.6476Z" fill="#86E7B8"/>
</g>
<g id="Group_3">
<path id="XMLID_140_" d="M24.1594 25.8408L20 30.0002L24.1594 34.1596" stroke="#03200E" stroke-width="2.35294" stroke-miterlimit="10" stroke-linecap="round" stroke-linejoin="round"/>
<path id="XMLID_145_" d="M35.8407 34.1596L40.0001 30.0002L35.8407 25.8408" stroke="#03200E" stroke-width="2.35294" stroke-miterlimit="10" stroke-linecap="round" stroke-linejoin="round"/>
<path id="XMLID_146_" d="M31.7079 21.9932L28.2936 38.0068" stroke="#03200E" stroke-width="2.35294" stroke-miterlimit="10" stroke-linecap="round" stroke-linejoin="round"/>
<path id="XMLID_143_" d="M58.8244 32.9415V27.0591L54.4885 26.7123C53.9081 22.3491 52.1892 18.3464 49.6399 15.0115L52.4619 11.6988L48.3025 7.53935L44.9898 10.3613C41.6548 7.81217 37.6521 6.09311 33.289 5.51276L32.942 1.17676H27.0597L26.7128 5.51264C22.3497 6.09299 18.3471 7.81193 15.012 10.3612L11.6992 7.53923L7.53978 11.6988L10.3618 15.0115C7.8126 18.3464 6.09354 22.3491 5.51319 26.7123L1.17731 27.0591V32.9415L5.51319 33.2883C6.09354 37.6515 7.81248 41.654 10.3617 44.9891L7.53966 48.3018L11.6991 52.4612L15.0118 49.6392C18.3467 52.1884 22.3494 53.9075 26.7126 54.4877L27.0597 58.8238H32.942L33.2888 54.4879C37.652 53.9076 41.6546 52.1886 44.9897 49.6395L48.3024 52.4615L52.4618 48.302L49.6398 44.9893C52.189 41.6544 53.908 37.6517 54.4882 33.2885L58.8244 32.9415Z" stroke="#03200E" stroke-width="2.35294" stroke-miterlimit="10" stroke-linecap="round" stroke-linejoin="round"/>
</g>
</g>
</g>
<defs>
<clipPath id="clip0_572_431">
<rect width="60" height="60" fill="white"/>
</clipPath>
</defs>
</svg>
