<svg width="60" height="60" viewBox="0 0 60 60" fill="none" xmlns="http://www.w3.org/2000/svg">
<g id="levels 1" clip-path="url(#clip0_572_322)">
<g id="g1527">
<g id="g1529">
<g id="Clip path group">
<mask id="mask0_572_322" style="mask-type:luminance" maskUnits="userSpaceOnUse" x="0" y="0" width="61" height="61">
<g id="clipPath1535">
<path id="path1533" d="M0.00317383 0.000980377H60.0032V60.001H0.00317383V0.000980377Z" fill="white"/>
</g>
</mask>
<g mask="url(#mask0_572_322)">
<g id="g1531">
<g id="g1537">
<path id="path1539" d="M30.0161 24.1104C24.8946 24.1104 20.728 19.9341 20.728 14.8009C20.728 9.6677 24.8946 5.49149 30.0161 5.49149C35.1375 5.49149 39.3041 9.6677 39.3041 14.8009C39.3041 19.9341 35.1375 24.1104 30.0161 24.1104Z" stroke="#03200E" stroke-width="2.34375" stroke-miterlimit="10" stroke-linecap="round" stroke-linejoin="round"/>
</g>
<g id="g1541">
<path id="path1543" d="M32.046 18.0229C32.046 18.0229 28.4501 18.0683 28.2798 18.0113C28.1095 17.9545 28.5529 17.6538 30.9105 14.2775C31.3508 13.6469 31.5931 13.115 31.6962 12.6693L31.7328 12.3828C31.7328 11.3359 30.8861 10.4872 29.8416 10.4872C28.9225 10.4872 28.1567 11.1444 27.986 12.0153" stroke="#03200E" stroke-width="2.34375" stroke-miterlimit="10" stroke-linecap="round" stroke-linejoin="round"/>
</g>
<g id="g1545">
<path id="path1547" d="M30.0161 24.2863V37.8008" stroke="#03200E" stroke-width="2.34375" stroke-miterlimit="10" stroke-linecap="round" stroke-linejoin="round"/>
</g>
<g id="g1549">
<path id="path1551" d="M9.64417 34.7782V42.958" stroke="#03200E" stroke-width="2.34375" stroke-miterlimit="10" stroke-linecap="round" stroke-linejoin="round"/>
</g>
<g id="g1553">
<path id="path1555" d="M9.64417 37.2529C4.64448 37.2529 0.576904 33.0767 0.576904 27.9434C0.576904 22.8103 4.64448 18.6341 9.64417 18.6341C14.6439 18.6341 18.7114 22.8103 18.7114 27.9434C18.7114 33.0767 14.6439 37.2529 9.64417 37.2529Z" fill="#86E7B8"/>
</g>
<g id="g1557">
<path id="path1559" d="M8.10205 24.2396H9.64424V31.6475" stroke="#03200E" stroke-width="2.34375" stroke-miterlimit="10" stroke-linecap="round" stroke-linejoin="round"/>
</g>
<g id="g1561">
<path id="path1563" d="M50.3571 34.7782V42.958" stroke="#03200E" stroke-width="2.34375" stroke-miterlimit="10" stroke-linecap="round" stroke-linejoin="round"/>
</g>
<g id="g1565">
<path id="path1567" d="M50.3387 37.2529C45.2173 37.2529 41.0507 33.0767 41.0507 27.9434C41.0507 22.8103 45.2173 18.6341 50.3387 18.6341C55.4602 18.6341 59.6266 22.8103 59.6266 27.9434C59.6266 33.0767 55.4602 37.2529 50.3387 37.2529Z" fill="#86E7B8"/>
</g>
<g id="g1569">
<path id="path1571" d="M48.4838 25.6657C48.6545 24.7946 49.4203 24.1376 50.3394 24.1376C51.3839 24.1376 52.2306 24.9863 52.2306 26.0331C52.2306 27.08 51.3839 27.9287 50.3394 27.9287" stroke="#03200E" stroke-width="2.34375" stroke-miterlimit="10" stroke-linecap="round" stroke-linejoin="round"/>
</g>
<g id="g1573">
<path id="path1575" d="M50.3383 27.9276C51.3828 27.9276 52.2295 28.7763 52.2295 29.8231C52.2295 30.87 51.3828 31.7188 50.3383 31.7188C49.3834 31.7188 48.5937 31.0092 48.4654 30.0875C48.4534 30.0011 48.4471 29.9129 48.4471 29.8231" stroke="#03200E" stroke-width="2.34375" stroke-miterlimit="10" stroke-linecap="round" stroke-linejoin="round"/>
</g>
<g id="g1577">
<path id="path1579" d="M18.0615 54.5098L30.0014 37.8012L41.9413 54.5098H18.0615Z" stroke="#03200E" stroke-width="2.34375" stroke-miterlimit="10" stroke-linecap="round" stroke-linejoin="round"/>
</g>
<g id="g1581">
<path id="path1583" d="M1.17212 54.5098L9.64302 42.9581L18.1138 54.5098H1.17212Z" stroke="#03200E" stroke-width="2.34375" stroke-miterlimit="10" stroke-linecap="round" stroke-linejoin="round"/>
</g>
<g id="g1585">
<path id="path1587" d="M41.8867 54.5098L50.3576 42.9581L58.8284 54.5098H41.8867Z" stroke="#03200E" stroke-width="2.34375" stroke-miterlimit="10" stroke-linecap="round" stroke-linejoin="round"/>
</g>
</g>
</g>
</g>
</g>
</g>
</g>
<defs>
<clipPath id="clip0_572_322">
<rect width="60" height="60" fill="white"/>
</clipPath>
</defs>
</svg>
