<svg width="60" height="60" viewBox="0 0 60 60" fill="none" xmlns="http://www.w3.org/2000/svg">
<g id="Frame">
<g id="Group">
<path id="Vector" d="M26.9792 30.7098H26.963C23.6903 30.7098 21.0372 28.0567 21.0372 24.784V21.9493C21.0372 18.6766 23.6903 16.0234 26.963 16.0234H26.9792C30.2519 16.0234 32.905 18.6766 32.905 21.9493V24.784C32.905 28.0567 30.2519 30.7098 26.9792 30.7098ZM26.9711 30.7098C22.0434 30.7098 18.0486 34.6938 18.0486 39.6081H35.8935C35.8937 34.6938 31.8989 30.7098 26.9711 30.7098Z" fill="#86E7B8"/>
<path id="Vector_2" d="M52.7705 19.4527V44.1396C52.7705 47.171 50.8937 49.0485 48.5786 49.0485H5.36379C3.04863 49.0485 1.17188 47.171 1.17188 44.1396V11.9479C1.17188 10.3472 3.04863 8.46973 5.36379 8.46973H39.4789M1.17188 39.6084H52.7705M22.2089 44.2977H31.7334M19.7081 49.0485H34.2342V55.5429H19.7081V49.0485Z" stroke="#03200E" stroke-width="2.34375" stroke-miterlimit="10" stroke-linecap="round" stroke-linejoin="round"/>
<path id="Vector_3" d="M56.6219 3.28613H41.24C39.3744 3.28613 37.8619 4.78789 37.8619 6.64051V18.5444C37.8619 20.397 39.3744 21.8988 41.24 21.8988H43.4702L43.7272 24.1455L47.8229 21.8988H56.6219C58.4875 21.8988 59.9999 20.397 59.9999 18.5444V6.64051C59.9999 4.78789 58.4875 3.28613 56.6219 3.28613Z" fill="#86E7B8"/>
<path id="Vector_4" d="M13.9169 55.543H40.0255" stroke="#03200E" stroke-width="2.34375" stroke-miterlimit="10" stroke-linecap="round" stroke-linejoin="round"/>
</g>
</g>
</svg>
