<svg width="64" height="64" viewBox="0 0 64 64" fill="none" xmlns="http://www.w3.org/2000/svg">
<g id="Frame" clip-path="url(#clip0_1894_21797)">
<g id="Group">
<path id="Vector" d="M3.75634 39.4868C1.68297 39.4868 -0.00390625 37.7998 -0.00390625 35.7266C-0.00390625 33.6532 1.68297 31.9665 3.75634 31.9665H60.2358C62.3092 31.9665 63.9961 33.6532 63.9961 35.7266C63.9961 37.8 62.3092 39.4868 60.2358 39.4868H3.75634Z" fill="#86E7B8"/>
<path id="Vector_2" d="M3.88184 24.6583L7.43184 28.2083M3.88184 28.2083L7.43184 24.6583M27.8396 16.6885C26.745 14.3143 23.363 13.6734 21.075 14.9385C18.787 16.2039 17.5328 18.8206 17.1392 21.4053C16.7457 23.99 17.0682 26.6218 17.1571 29.2348C17.371 35.5148 18.8155 49.879 11.0881 49.6956C-7.73066 49.249 24.6407 16.2539 32.7693 26.7008C33.9345 28.1983 36.2497 28.9421 37.7916 27.8363C39.333 26.7308 39.7618 24.1646 41.6271 23.8189C42.8873 23.5855 54.8611 30.7238 62.7461 26.1448" stroke="#03200E" stroke-width="2.5" stroke-miterlimit="10" stroke-linecap="round" stroke-linejoin="round"/>
</g>
</g>
<defs>
<clipPath id="clip0_1894_21797">
<rect width="64" height="64" fill="white" transform="translate(-0.00195312)"/>
</clipPath>
</defs>
</svg>
