<svg width="40" height="40" viewBox="0 0 40 40" fill="none" xmlns="http://www.w3.org/2000/svg">
<rect width="40" height="40" rx="20" fill="url(#paint0_linear_1703_20924)"/>
<path fill-rule="evenodd" clip-rule="evenodd" d="M11.0771 19.9355H14.8746V18.551C14.8746 17.4509 15.2374 16.4317 15.8499 15.6066C15.6789 15.6408 15.5048 15.6582 15.3304 15.6584C14.6621 15.6584 14.0522 15.4086 13.5898 14.9968C12.1162 15.6253 11.0772 17.0895 11.0772 18.7863L11.0771 19.9355ZM25.1243 19.9355H28.9218V18.7862C28.9218 17.0894 27.8827 15.6252 26.4092 14.9967C25.9455 15.4086 25.3356 15.6584 24.6673 15.6584C24.4933 15.6581 24.3197 15.6407 24.1491 15.6065C24.7616 16.4317 25.1244 17.4508 25.1244 18.551V19.9355H25.1243Z" fill="#86E7B8"/>
<path d="M19.9998 14.7828C21.7391 14.7828 23.1568 13.3651 23.1568 11.6258C23.1568 9.88648 21.7391 8.46875 19.9998 8.46875C18.2605 8.46875 16.8428 9.88648 16.8428 11.6258C16.8428 13.3651 18.2605 14.7828 19.9998 14.7828Z" stroke="#03200E" stroke-width="0.9375" stroke-miterlimit="10" stroke-linecap="round" stroke-linejoin="round"/>
<path d="M22.0966 13.9856C23.8717 14.743 25.1247 16.5075 25.1247 18.5511V19.9356M14.875 19.9356V18.5511C14.875 16.5075 16.128 14.743 17.9031 13.9856" stroke="#03200E" stroke-width="0.9375" stroke-miterlimit="10" stroke-linecap="round" stroke-linejoin="round"/>
<path d="M24.1495 15.6065C24.3201 15.6407 24.4937 15.6581 24.6677 15.6584C26.116 15.6584 27.2892 14.4851 27.2892 13.0368C27.2892 11.5899 26.116 10.4166 24.6677 10.4166C24.0724 10.4166 23.5237 10.6146 23.0839 10.9495M15.8504 15.6065C15.6793 15.6408 15.5053 15.6581 15.3308 15.6584C13.8839 15.6584 12.7106 14.4851 12.7106 13.0368C12.7106 11.5899 13.8839 10.4166 15.3308 10.4166C15.9034 10.4157 16.4603 10.6029 16.916 10.9495M29.9041 19.9355V23.3171H28.3775C28.1594 24.4013 27.732 25.4326 27.1192 26.3531L28.1994 27.4347L25.8077 29.8251L24.7275 28.7449C23.8213 29.3481 22.7942 29.7826 21.6914 30.0045V31.5312H18.3085V30.0045C17.2043 29.7826 16.1786 29.3481 15.2724 28.7449L14.1921 29.8251L11.8004 27.4348L12.8806 26.3532C12.2678 25.4326 11.8404 24.4013 11.6223 23.3171H10.0957V19.9355L29.9041 19.9355Z" stroke="#03200E" stroke-width="0.9375" stroke-miterlimit="10" stroke-linecap="round" stroke-linejoin="round"/>
<path d="M24.1838 19.9355C24.4011 20.473 24.5125 21.0473 24.512 21.627C24.512 24.1183 22.491 26.138 19.9996 26.138C17.507 26.138 15.4873 24.1183 15.4873 21.627C15.4868 21.0473 15.5982 20.473 15.8155 19.9355" stroke="#03200E" stroke-width="0.9375" stroke-miterlimit="10" stroke-linecap="round" stroke-linejoin="round"/>
<defs>
<linearGradient id="paint0_linear_1703_20924" x1="40" y1="29.8182" x2="2.74612" y2="30.8056" gradientUnits="userSpaceOnUse">
<stop stop-color="#E6F3EB"/>
<stop offset="0.27586" stop-color="#E7F4E6"/>
<stop offset="1" stop-color="#FEFBF0"/>
</linearGradient>
</defs>
</svg>
