<svg width="40" height="40" viewBox="0 0 40 40" fill="none" xmlns="http://www.w3.org/2000/svg">
<rect width="40" height="40" rx="20" fill="url(#paint0_linear_1703_20915)"/>
<path d="M24.1581 20.9599C26.4556 18.6623 26.4556 14.9373 24.1581 12.6397C21.8605 10.3421 18.1354 10.3421 15.8378 12.6397C13.5403 14.9373 13.5403 18.6623 15.8378 20.9599C18.1354 23.2575 21.8605 23.2575 24.1581 20.9599Z" fill="#86E7B8"/>
<path d="M22.4364 20.5037C22.5071 20.4523 22.5621 20.3821 22.595 20.3011C22.628 20.2201 22.6377 20.1315 22.6229 20.0453L22.2519 17.8822L23.8234 16.3502C23.8861 16.2892 23.9304 16.2118 23.9513 16.1269C23.9723 16.042 23.9691 15.9529 23.9421 15.8697C23.915 15.7865 23.8653 15.7126 23.7984 15.6562C23.7315 15.5998 23.6502 15.5633 23.5637 15.5507L21.3918 15.2351L20.4205 13.267C20.3818 13.1886 20.3219 13.1226 20.2476 13.0764C20.1733 13.0302 20.0876 13.0057 20.0001 13.0057C19.9127 13.0057 19.8269 13.0302 19.7527 13.0764C19.6784 13.1226 19.6185 13.1886 19.5798 13.267L18.6085 15.2351L16.4366 15.5507C16.35 15.5632 16.2687 15.5998 16.2018 15.6561C16.1349 15.7125 16.0851 15.7865 16.0581 15.8697C16.0311 15.9529 16.0279 16.042 16.0488 16.1269C16.0698 16.2118 16.1142 16.2892 16.1768 16.3502L17.7484 17.8822L17.3774 20.0453C17.3626 20.1315 17.3723 20.2201 17.4052 20.3011C17.4382 20.3821 17.4931 20.4523 17.5639 20.5037C17.6347 20.5551 17.7184 20.5857 17.8056 20.592C17.8929 20.5983 17.9801 20.5801 18.0575 20.5394L20.0001 19.5181L21.9427 20.5394C22.0201 20.5801 22.1074 20.5983 22.1946 20.592C22.2819 20.5857 22.3656 20.5551 22.4364 20.5037ZM20.2182 18.5737C20.151 18.5383 20.0761 18.5198 20.0001 18.5198C19.9241 18.5198 19.8492 18.5383 19.782 18.5737L18.462 19.2676L18.7141 17.7978C18.7269 17.7229 18.7213 17.646 18.6979 17.5737C18.6744 17.5014 18.6337 17.4359 18.5793 17.3829L17.5114 16.3419L18.9872 16.1275C19.0624 16.1166 19.1338 16.0875 19.1953 16.0428C19.2568 15.9982 19.3065 15.9392 19.3401 15.8711L20.0001 14.5337L20.6601 15.8711C20.6937 15.9392 20.7434 15.9982 20.8049 16.0428C20.8664 16.0875 20.9378 16.1166 21.013 16.1275L22.4888 16.3419L21.4209 17.3829C21.3665 17.4359 21.3258 17.5014 21.3023 17.5737C21.2788 17.646 21.2733 17.7229 21.2861 17.7978L21.5382 19.2676L20.2182 18.5737Z" fill="#03200E"/>
<path d="M29.3113 29.5454L26.4569 22.6771C26.5704 22.426 26.6063 22.1458 26.6388 21.8885C26.6658 21.6744 26.6964 21.4318 26.7696 21.3226C26.841 21.2159 27.0518 21.0962 27.2379 20.9906C27.5768 20.7981 27.9609 20.5801 28.1317 20.168C28.2998 19.7626 28.1842 19.3407 28.0823 18.9687C28.022 18.7484 27.9596 18.5207 27.9858 18.388C28.0099 18.2666 28.1567 18.0776 28.2864 17.911C28.527 17.6015 28.7997 17.2508 28.7997 16.7996C28.7997 16.3483 28.527 15.9976 28.2864 15.6883C28.1567 15.5216 28.0098 15.3327 27.9858 15.2112C27.9596 15.0785 28.022 14.8508 28.0823 14.6305C28.1843 14.2584 28.2998 13.8366 28.1317 13.4312C27.9608 13.0191 27.5767 12.801 27.2379 12.6086C27.0519 12.503 26.841 12.3832 26.7696 12.2765C26.6965 12.1674 26.6659 11.9248 26.6388 11.7107C26.5903 11.3261 26.5352 10.8902 26.2224 10.5775C25.9096 10.2647 25.4737 10.2096 25.0891 10.1611C24.8751 10.134 24.6325 10.1034 24.5234 10.0303C24.4167 9.95891 24.297 9.74802 24.1913 9.56197C23.9989 9.22311 23.7808 8.83902 23.3687 8.66816C22.9633 8.50002 22.5414 8.61556 22.1693 8.71756C21.9491 8.77789 21.7213 8.84023 21.5886 8.81403C21.4672 8.79003 21.2783 8.64312 21.1116 8.51352C20.8022 8.27272 20.4515 8 20.0002 8C19.549 8 19.1983 8.27272 18.8888 8.51333C18.7222 8.64294 18.5332 8.78984 18.4118 8.81384C18.2793 8.84009 18.0514 8.7777 17.8312 8.71737C17.4591 8.61547 17.0372 8.49988 16.6318 8.66797C16.2197 8.83887 16.0016 9.22292 15.8092 9.56178C15.7035 9.74783 15.5838 9.95872 15.4771 10.0301C15.368 10.1032 15.1254 10.1338 14.9113 10.1609C14.5267 10.2095 14.0908 10.2645 13.7781 10.5773C13.4653 10.89 13.4102 11.326 13.3617 11.7105C13.3346 11.9246 13.304 12.1672 13.2309 12.2764C13.1595 12.383 12.9486 12.5028 12.7626 12.6084C12.4237 12.8008 12.0396 13.0189 11.8687 13.431C11.7006 13.8364 11.8162 14.2582 11.9182 14.6304C11.9785 14.8506 12.0408 15.0783 12.0146 15.2111C11.9906 15.3325 11.8437 15.5214 11.7141 15.6881C11.4735 15.9975 11.2008 16.3482 11.2008 16.7995C11.2008 17.2507 11.4735 17.6015 11.7141 17.9108C11.8437 18.0775 11.9906 18.2664 12.0146 18.3879C12.0409 18.5206 11.9785 18.7483 11.9181 18.9686C11.8162 19.3407 11.7006 19.7624 11.8687 20.1679C12.0396 20.58 12.4237 20.798 12.7625 20.9905C12.9486 21.0961 13.1595 21.2158 13.2308 21.3225C13.304 21.4317 13.3346 21.6743 13.3616 21.8883C13.3941 22.1458 13.43 22.426 13.5436 22.677L10.6892 29.5454C10.6553 29.6269 10.6452 29.7164 10.6599 29.8035C10.6746 29.8905 10.7136 29.9717 10.7724 30.0375C10.8313 30.1034 10.9075 30.1513 10.9923 30.1757C11.0772 30.2002 11.1672 30.2001 11.2521 30.1756L13.7873 29.4442L15.0574 31.7569C15.0999 31.8343 15.1634 31.8981 15.2406 31.941C15.3177 31.9839 15.4055 32.0041 15.4936 31.9993C15.5818 31.9945 15.6668 31.9649 15.7389 31.9139C15.811 31.863 15.8672 31.7927 15.9011 31.7111L18.7108 24.9502C18.7703 24.9935 18.831 25.0406 18.8888 25.0857C19.1983 25.3263 19.549 25.599 20.0002 25.599C20.5392 25.599 20.9299 25.2121 21.2897 24.9502L24.0994 31.7111C24.1333 31.7927 24.1895 31.863 24.2616 31.9139C24.3337 31.9649 24.4187 31.9945 24.5069 31.9993C24.595 32.0041 24.6828 31.9839 24.7599 31.941C24.8371 31.8981 24.9006 31.8343 24.9431 31.7569L26.2132 29.4442L28.7484 30.1756C28.8333 30.2001 28.9233 30.2002 29.0082 30.1757C29.093 30.1513 29.1692 30.1034 29.2281 30.0375C29.2869 29.9717 29.3259 29.8905 29.3406 29.8035C29.3553 29.7164 29.3452 29.6269 29.3113 29.5454ZM15.4096 30.4508L14.4285 28.6642C14.3773 28.5709 14.2958 28.4978 14.1975 28.457C14.0992 28.4161 13.9899 28.41 13.8877 28.4395L11.9293 29.0045L14.2915 23.3204C14.4956 23.3851 14.7104 23.4126 14.9113 23.438C15.1253 23.4651 15.368 23.4957 15.4771 23.5688C15.5838 23.6402 15.7035 23.8511 15.8092 24.0372C16.0015 24.376 16.2197 24.7601 16.6318 24.931C16.9939 25.0812 17.3692 25.0049 17.7105 24.9142L15.4096 30.4508ZM20.0002 24.6615C19.8705 24.6615 19.6547 24.4937 19.4643 24.3456C19.2154 24.152 18.9332 23.9326 18.5938 23.8655C18.2528 23.798 17.914 23.8869 17.5835 23.9774C17.3678 24.0365 17.0996 24.1101 16.9908 24.065C16.876 24.0174 16.7365 23.7717 16.6244 23.5743C16.4675 23.2978 16.2895 22.9846 15.9986 22.7898C15.7053 22.5935 15.3459 22.548 15.0288 22.508C14.8051 22.4797 14.5267 22.4446 14.441 22.3588C14.4373 22.3548 14.4339 22.3508 14.4306 22.3465C14.3524 22.2493 14.3189 21.9852 14.2918 21.7709C14.2517 21.4538 14.2063 21.0944 14.0099 20.8011C13.8152 20.5102 13.5019 20.3323 13.2255 20.1753C13.0281 20.0632 12.7823 19.9237 12.7347 19.8089C12.6897 19.7004 12.7632 19.432 12.8223 19.2164C12.9072 18.9065 13.0034 18.5554 12.9343 18.206C12.8671 17.8665 12.6477 17.5844 12.4542 17.3354C12.3061 17.145 12.1383 16.9292 12.1383 16.7996C12.1383 16.6699 12.3061 16.454 12.4542 16.2636C12.6478 16.0147 12.8671 15.7325 12.9343 15.3931C13.0034 15.0437 12.9072 14.6926 12.8223 14.3828C12.7632 14.1672 12.6897 13.8988 12.7348 13.7902C12.7824 13.6753 13.0281 13.5358 13.2255 13.4238C13.5019 13.2668 13.8152 13.0889 14.01 12.798C14.2063 12.5047 14.2517 12.1452 14.2918 11.8281C14.3201 11.6045 14.3553 11.3261 14.4411 11.2403C14.5268 11.1545 14.8052 11.1193 15.0289 11.0911C15.346 11.051 15.7054 11.0056 15.9988 10.8092C16.2896 10.6145 16.4676 10.3012 16.6245 10.0248C16.7366 9.82733 16.8761 9.58161 16.9909 9.53403C17.0996 9.48898 17.3679 9.56253 17.5835 9.62164C17.8933 9.70648 18.2443 9.80263 18.5938 9.73363C18.9333 9.66645 19.2155 9.44708 19.4644 9.25348C19.6548 9.10531 19.8705 8.9375 20.0002 8.9375C20.13 8.9375 20.3457 9.10531 20.5362 9.25339C20.7851 9.44694 21.0673 9.66636 21.4067 9.73353C21.756 9.80262 22.1072 9.70644 22.417 9.62155C22.6327 9.56248 22.9009 9.48889 23.0097 9.53398C23.1245 9.58161 23.264 9.82728 23.3761 10.0247C23.533 10.3011 23.7109 10.6144 24.0018 10.8092C24.2952 11.0056 24.6546 11.051 24.9717 11.091C25.1954 11.1193 25.4737 11.1545 25.5595 11.2402C25.6453 11.326 25.6805 11.6044 25.7088 11.828C25.7488 12.1452 25.7942 12.5046 25.9906 12.7979C26.1854 13.0888 26.4987 13.2667 26.775 13.4237C26.9725 13.5358 27.2182 13.6753 27.2658 13.7901C27.3108 13.8987 27.2373 14.167 27.1782 14.3827C27.0933 14.6925 26.9972 15.0436 27.0663 15.393C27.1335 15.7325 27.3528 16.0146 27.5464 16.2636C27.6945 16.454 27.8623 16.6699 27.8623 16.7995C27.8623 16.9292 27.6945 17.145 27.5464 17.3354C27.3528 17.5843 27.1334 17.8665 27.0663 18.206C26.9971 18.5553 27.0933 18.9065 27.1782 19.2163C27.2373 19.4319 27.3108 19.7003 27.2658 19.8089C27.2182 19.9237 26.9725 20.0632 26.775 20.1753C26.4986 20.3322 26.1853 20.5102 25.9906 20.801C25.7942 21.0944 25.7488 21.4538 25.7087 21.7709C25.6817 21.985 25.6482 22.2486 25.5702 22.3462C25.5668 22.3505 25.5632 22.3548 25.5595 22.3588C25.4737 22.4446 25.1953 22.4797 24.9717 22.508C24.6545 22.548 24.2951 22.5935 24.0018 22.7899C23.7109 22.9846 23.533 23.2979 23.376 23.5743C23.2639 23.7718 23.1244 24.0175 23.0096 24.065C22.9009 24.11 22.6327 24.0365 22.417 23.9774C22.1072 23.8926 21.756 23.7965 21.4067 23.8655C21.0673 23.9326 20.7851 24.152 20.5362 24.3456C20.3458 24.4936 20.13 24.6615 20.0002 24.6615ZM26.1128 28.4395C26.0105 28.41 25.9012 28.4161 25.8029 28.457C25.7046 28.4978 25.6232 28.5709 25.572 28.6642L24.5908 30.4508L22.29 24.9143C22.6313 25.005 23.0065 25.0813 23.3686 24.931C23.7807 24.7602 23.9988 24.3761 24.1912 24.0372C24.2969 23.8512 24.4166 23.6403 24.5233 23.5689C24.6324 23.4957 24.8751 23.4651 25.0891 23.4381C25.29 23.4127 25.5049 23.3852 25.7089 23.3204L28.0712 29.0045L26.1128 28.4395Z" fill="#03200E"/>
<defs>
<linearGradient id="paint0_linear_1703_20915" x1="40" y1="29.8182" x2="2.74612" y2="30.8056" gradientUnits="userSpaceOnUse">
<stop stop-color="#E6F3EB"/>
<stop offset="0.27586" stop-color="#E7F4E6"/>
<stop offset="1" stop-color="#FEFBF0"/>
</linearGradient>
</defs>
</svg>
