<svg width="40" height="40" viewBox="0 0 40 40" fill="none" xmlns="http://www.w3.org/2000/svg">
<rect width="40" height="40" rx="20" fill="url(#paint0_linear_1703_20895)"/>
<path d="M24.0742 15.1793C24.3331 15.1793 24.543 14.9694 24.543 14.7105V10.8449C24.543 9.27622 23.2668 8 21.6981 8H12.5315C10.9627 8 9.68652 9.27622 9.68652 10.8449V29.1551C9.68652 30.7238 10.9628 32 12.5315 32H21.6981C23.2668 32 24.543 30.7238 24.543 29.1551V22.4105C24.543 22.1517 24.3331 21.9418 24.0742 21.9418C23.8154 21.9418 23.6055 22.1517 23.6055 22.4105V29.1551C23.6055 30.2068 22.7498 31.0625 21.6981 31.0625H12.5315C11.4797 31.0625 10.624 30.2068 10.624 29.1551V10.8449C10.624 9.79316 11.4797 8.9375 12.5315 8.9375H21.6981C22.7498 8.9375 23.6055 9.79316 23.6055 10.8449V14.7105C23.6055 14.9694 23.8154 15.1793 24.0742 15.1793Z" fill="#03200E"/>
<path d="M22.3999 27.7424C22.3999 27.4835 22.19 27.2736 21.9311 27.2736H12.2988C12.04 27.2736 11.8301 27.4835 11.8301 27.7424C11.8301 28.0013 12.04 28.2111 12.2988 28.2111H21.9311C22.19 28.2111 22.3999 28.0013 22.3999 27.7424ZM16.3685 29.1426C16.1097 29.1426 15.8998 29.3525 15.8998 29.6114C15.8998 29.8703 16.1097 30.0801 16.3685 30.0801H17.8615C18.1204 30.0801 18.3303 29.8703 18.3303 29.6114C18.3303 29.3525 18.1204 29.1426 17.8615 29.1426H16.3685ZM18.4651 10.8395C18.724 10.8395 18.9339 10.6296 18.9339 10.3707C18.9339 10.1118 18.724 9.90198 18.4651 9.90198H15.7649C15.506 9.90198 15.2961 10.1118 15.2961 10.3707C15.2961 10.6296 15.506 10.8395 15.7649 10.8395H18.4651Z" fill="#03200E"/>
<path d="M22.8048 11.1124C18.6577 11.1124 15.2959 14.4767 15.2959 18.6268C15.2959 20.4188 15.9227 22.0642 16.9689 23.3556L16.3914 24.7164L18.0993 24.4831C19.3867 25.5203 21.0233 26.1412 22.8049 26.1412C26.9519 26.1412 30.3138 22.7769 30.3138 18.6268C30.3138 14.4767 26.9519 11.1124 22.8048 11.1124Z" fill="#86E7B8"/>
<path d="M20.4925 19.0953C20.297 19.0953 20.1173 18.969 20.0512 18.7847C19.9881 18.6085 20.039 18.405 20.1778 18.2794C20.327 18.1443 20.5524 18.1206 20.7268 18.2209C20.8992 18.3202 20.9904 18.5235 20.9519 18.7184C20.9092 18.935 20.7129 19.0953 20.4925 19.0953ZM22.8044 19.0953C22.6085 19.0953 22.4296 18.9691 22.3636 18.7847C22.2986 18.6034 22.3539 18.3939 22.5012 18.2693C22.655 18.1391 22.8806 18.1229 23.0518 18.2288C23.216 18.3304 23.3019 18.529 23.2643 18.7184C23.2212 18.9349 23.0248 19.0953 22.8044 19.0953ZM25.1168 19.0958C24.9265 19.0958 24.7505 18.9758 24.6808 18.7989C24.6091 18.6167 24.6602 18.4034 24.8077 18.2742C24.9574 18.1431 25.1784 18.1224 25.3507 18.2209C25.5179 18.3165 25.6111 18.5132 25.5789 18.7031C25.5412 18.926 25.3438 19.0958 25.1168 19.0958Z" fill="#03200E"/>
<defs>
<linearGradient id="paint0_linear_1703_20895" x1="40" y1="29.8182" x2="2.74612" y2="30.8056" gradientUnits="userSpaceOnUse">
<stop stop-color="#E6F3EB"/>
<stop offset="0.27586" stop-color="#E7F4E6"/>
<stop offset="1" stop-color="#FEFBF0"/>
</linearGradient>
</defs>
</svg>
